<?xml version="1.0" standalone="no"?>
<!DOCTYPE svg PUBLIC "-//W3C//DTD SVG 20010904//EN"
 "http://www.w3.org/TR/2001/REC-SVG-20010904/DTD/svg10.dtd">
<svg version="1.0" xmlns="http://www.w3.org/2000/svg"
 width="1408.000000pt" height="768.000000pt" viewBox="0 0 1408.000000 768.000000"
 preserveAspectRatio="xMidYMid meet">

<g transform="translate(0.000000,768.000000) scale(0.100000,-0.100000)"
fill="#000000" stroke="none">
<path d="M6915 6273 c-103 -37 -191 -119 -236 -218 -18 -41 -23 -69 -23 -150
-1 -90 2 -106 27 -156 53 -109 132 -178 245 -214 41 -14 52 -22 52 -39 0 -25
-288 -458 -309 -464 -8 -3 -11 0 -7 6 4 6 -2 8 -16 5 -16 -3 -19 -2 -10 4 9 7
0 16 -29 33 -23 12 -39 18 -35 11 10 -16 -7 -14 -30 5 -17 14 -17 15 -1 10 11
-4 16 -2 12 5 -4 6 -14 8 -22 5 -16 -6 -110 39 -260 125 -56 33 -107 59 -113
59 -6 0 -9 3 -7 8 3 4 -16 8 -43 10 -47 3 -134 -23 -125 -38 5 -8 -32 -30 -55
-33 -18 -3 -179 -97 -186 -109 -3 -4 1 -11 9 -14 8 -3 65 26 128 64 168 102
174 105 238 100 49 -4 83 -19 277 -126 121 -67 228 -128 238 -135 17 -12 5
-24 -130 -122 -82 -60 -154 -112 -161 -117 -7 -6 -27 -1 -54 12 -28 15 -38 25
-30 30 10 5 8 9 -4 13 -9 4 -13 3 -10 -3 13 -20 -14 -7 -205 98 -107 59 -217
118 -243 132 -26 14 -47 30 -47 36 0 28 -33 19 -116 -31 -74 -44 -92 -59 -103
-90 -7 -20 -10 -39 -7 -42 3 -4 6 1 6 10 0 16 49 57 70 57 11 0 106 -51 395
-210 433 -239 583 -320 596 -320 8 0 3 6 -11 13 -14 8 -151 82 -305 166 -154
84 -309 169 -345 188 -36 20 -69 39 -75 43 -5 4 -59 33 -120 65 -128 67 -147
81 -125 95 9 6 17 5 21 -2 4 -6 21 -1 45 16 21 14 45 26 52 26 7 0 48 -20 90
-44 42 -24 173 -96 289 -161 201 -110 213 -118 207 -141 -4 -17 0 -31 11 -44
22 -24 38 -25 75 -4 27 16 29 16 86 -18 33 -19 98 -56 146 -82 83 -45 87 -47
70 -65 -9 -10 -20 -16 -23 -15 -4 2 -13 -3 -20 -12 -7 -9 -39 -29 -71 -45 -49
-25 -69 -29 -128 -28 -38 1 -67 5 -64 10 3 5 -2 6 -10 3 -8 -3 -34 5 -58 17
-97 49 -314 172 -328 186 -12 12 -9 12 18 -1 17 -9 32 -14 32 -12 0 11 -55 33
-69 28 -8 -3 -11 0 -7 6 3 6 1 14 -5 18 -8 4 -9 3 -5 -4 4 -7 2 -12 -4 -12
-18 0 -329 169 -407 221 -23 15 -40 22 -37 14 6 -14 396 -235 414 -235 6 0 10
-4 10 -8 0 -5 -84 -28 -187 -53 -102 -24 -188 -49 -190 -56 -2 -6 19 -24 46
-40 28 -15 50 -32 48 -37 -3 -8 -358 -232 -421 -266 -18 -9 -36 -3 -121 45
-55 30 -106 53 -113 50 -7 -3 -11 -1 -8 3 7 12 -151 95 -164 87 -6 -4 -9 -1
-8 6 5 21 -71 41 -130 36 -58 -6 -73 -14 -336 -174 -238 -146 -233 -142 -231
-198 1 -28 7 -50 16 -56 19 -12 254 -143 590 -328 152 -84 294 -157 314 -162
65 -18 115 -3 242 72 158 94 154 92 147 75 -7 -18 34 -99 46 -91 6 4 7 -1 3
-11 -4 -11 -3 -15 5 -10 10 6 22 -17 28 -53 5 -24 17 -29 154 -51 l135 -21
325 -176 c179 -97 377 -205 441 -240 l115 -64 15 -57 14 -57 123 -25 c67 -13
122 -27 122 -30 0 -4 -34 -28 -75 -54 -79 -50 -115 -87 -115 -117 0 -35 48
-70 250 -179 113 -62 257 -140 320 -175 294 -161 367 -195 417 -195 63 1 98
17 335 162 225 138 268 172 268 213 0 41 -38 69 -231 174 -96 51 -180 99 -187
105 -10 10 16 18 125 40 169 34 163 32 163 51 0 19 -22 17 -178 -15 -57 -12
-107 -18 -110 -14 -4 3 -1 9 6 11 6 3 12 11 12 19 0 8 5 14 10 14 6 0 10 4 10
9 0 6 -8 9 -19 8 -13 -1 -17 -7 -14 -22 3 -14 2 -16 -4 -7 -7 9 -15 2 -30 -25
-11 -21 -26 -37 -33 -35 -8 2 -105 53 -217 114 -111 60 -218 113 -237 118 -71
16 -132 -5 -281 -95 -78 -47 -144 -85 -148 -85 -3 0 -25 35 -48 78 -63 115
-56 111 -153 105 l-83 -6 -234 128 c-129 70 -333 182 -453 249 l-220 121 -34
75 c-19 41 -35 76 -36 77 0 1 -66 15 -146 31 l-145 30 48 28 c200 119 223 143
195 201 -15 30 -232 158 -250 147 -6 -4 -8 -3 -5 2 3 6 -22 25 -56 44 -34 19
-75 41 -90 51 l-28 17 224 136 c124 75 227 136 231 136 3 0 28 -14 56 -31 28
-17 56 -29 63 -26 7 3 41 57 76 121 35 64 68 116 74 116 6 0 107 -52 225 -117
202 -110 217 -116 270 -116 67 0 63 -2 307 147 l190 116 3 -40 c2 -29 -25
-125 -102 -362 -58 -178 -134 -425 -168 -550 l-63 -226 -35 -6 c-19 -3 -56 -6
-82 -6 -52 0 -78 -18 -78 -54 0 -41 23 -50 128 -47 53 1 108 8 122 14 30 15
29 12 125 357 41 146 105 357 143 470 66 195 70 204 81 175 7 -16 26 -66 42
-110 17 -44 41 -91 52 -104 18 -19 203 -167 240 -193 6 -3 -10 -37 -36 -79
-49 -76 -57 -108 -32 -129 22 -18 64 -15 80 6 40 54 115 191 115 210 0 17 -36
52 -147 141 l-146 118 -64 168 -63 168 2 374 3 374 135 -105 c74 -58 147 -118
161 -132 20 -21 37 -69 78 -222 58 -214 72 -241 118 -224 25 9 28 14 27 54 -1
40 -76 344 -102 411 -12 30 -73 83 -280 244 -115 90 -141 115 -142 136 0 22 7
27 60 43 122 37 234 153 261 270 18 83 8 200 -24 267 -34 71 -118 151 -194
187 -77 34 -203 41 -278 15z m251 -116 c61 -31 98 -72 132 -146 21 -46 24 -64
20 -126 -6 -86 -34 -143 -99 -199 -81 -69 -212 -85 -305 -38 -60 31 -131 114
-149 175 -18 62 -19 88 -2 155 24 92 91 163 184 198 57 21 157 13 219 -19z
m-188 -1195 l-3 -108 -97 55 c-54 31 -93 58 -87 60 8 2 8 5 1 10 -7 4 28 66
86 156 l97 150 3 -107 c1 -59 1 -156 0 -216z m-362 103 c10 -8 14 -15 8 -15
-5 0 -19 7 -30 15 -10 8 -14 15 -8 15 5 0 19 -7 30 -15z m254 -164 l105 -58 1
-81 c1 -45 -2 -80 -6 -77 -5 3 -59 -26 -121 -64 l-114 -68 -35 22 c-19 12 -86
48 -147 80 -62 33 -113 62 -113 65 0 6 312 239 320 239 3 0 52 -26 110 -58z
m-1007 -381 l-45 -80 -52 30 c-28 17 -66 38 -83 47 -18 9 -33 19 -33 22 0 6
210 58 242 60 13 1 6 -17 -29 -79z m-959 -194 c78 -41 278 -151 446 -244 230
-128 306 -175 308 -190 4 -25 -32 -52 -183 -142 l-105 -62 -165 91 c-91 51
-171 89 -177 85 -7 -4 -8 -3 -4 4 8 14 -50 46 -66 36 -6 -4 -8 -3 -5 2 3 6
-47 39 -111 73 -64 35 -161 88 -214 118 -56 31 -102 52 -109 47 -8 -5 -9 -3
-4 6 6 10 4 12 -9 7 -10 -4 -15 -3 -11 3 3 5 -19 22 -49 37 -31 15 -56 30 -56
34 0 7 232 152 260 162 8 3 37 6 64 6 42 1 68 -9 190 -73z m-320 -247 c708
-387 750 -411 730 -426 -29 -22 -97 -56 -90 -45 3 5 -79 56 -182 113 -103 57
-254 141 -337 186 -82 46 -156 81 -163 78 -7 -3 -10 -1 -7 5 8 12 -52 43 -67
34 -6 -4 -8 -3 -5 3 8 13 -20 26 -35 16 -6 -3 -8 -1 -4 5 3 6 -29 29 -80 57
-47 26 -83 49 -80 52 8 8 71 52 75 53 2 0 112 -59 245 -131z m-150 -65 c116
-64 245 -135 286 -158 41 -23 169 -94 283 -157 l208 -114 -38 -17 c-62 -29
-112 -23 -199 22 -42 22 -81 37 -87 33 -5 -3 -7 -2 -4 4 8 13 -200 126 -215
117 -6 -4 -8 -3 -4 4 8 13 -290 176 -306 166 -7 -4 -8 -3 -4 4 8 13 -70 56
-85 47 -5 -4 -8 -2 -7 4 2 5 -22 25 -52 43 -65 39 -74 63 -34 95 16 13 33 23
38 23 5 0 104 -52 220 -116z m-290 30 c3 -8 2 -12 -4 -9 -6 3 -10 10 -10 16 0
14 7 11 14 -7z m2753 -1150 c14 -30 23 -57 21 -59 -2 -3 -43 3 -90 12 -91 18
-98 23 -98 81 0 21 4 22 71 22 l70 0 26 -56z m808 -100 c439 -238 595 -325
610 -340 8 -8 12 -21 9 -29 -5 -12 -276 -185 -291 -185 -13 0 -973 532 -973
539 0 7 7 11 149 98 97 59 107 63 164 63 60 0 68 -3 332 -146z m-498 -150
c109 -59 252 -137 318 -173 66 -37 198 -109 293 -161 94 -52 172 -97 172 -100
0 -3 -19 -16 -43 -29 l-43 -23 -134 75 c-74 41 -250 138 -390 214 -405 223
-450 248 -450 254 0 4 69 48 77 49 2 0 92 -48 200 -106z m-218 -31 c232 -123
857 -465 865 -473 18 -17 -56 -42 -108 -38 -43 4 -109 37 -431 213 -554 304
-540 294 -473 335 18 11 35 20 37 20 2 0 52 -25 110 -57z"/>
<path d="M6480 4715 c0 -2 18 -14 40 -25 22 -11 40 -18 40 -15 0 2 -18 14 -40
25 -22 11 -40 18 -40 15z"/>
<path d="M6590 4656 c0 -3 14 -12 30 -21 17 -9 30 -13 30 -11 0 3 -13 12 -30
21 -16 9 -30 13 -30 11z"/>
<path d="M6680 4606 c0 -3 9 -10 20 -16 11 -6 20 -8 20 -6 0 3 -9 10 -20 16
-11 6 -20 8 -20 6z"/>
<path d="M4970 4114 c-46 -29 -86 -57 -88 -63 -5 -14 80 -61 122 -68 39 -6 86
17 86 42 0 9 9 15 23 15 45 0 63 44 30 72 -10 8 -34 24 -53 35 l-35 20 -85
-53z m114 -10 c22 -9 20 -24 -3 -24 -28 0 -52 11 -45 21 6 10 26 12 48 3z
m-69 -46 c14 -6 25 -15 25 -20 0 -16 -31 -21 -57 -9 -21 9 -23 14 -13 26 15
18 13 18 45 3z"/>
<path d="M7650 2684 c-75 -32 -98 -79 -62 -124 18 -22 87 -38 118 -26 16 6 16
8 0 25 -9 10 -26 17 -39 14 -12 -2 -29 1 -37 6 -12 8 -11 14 8 34 38 41 122
56 122 22 0 -6 8 -19 19 -29 16 -15 20 -15 31 -1 21 25 4 65 -35 81 -43 18
-81 17 -125 -2z"/>
<path d="M9967 5723 c-24 -24 7 -45 248 -177 310 -169 305 -165 242 -166 -34
0 -49 -4 -54 -16 -9 -24 6 -29 150 -53 153 -25 157 -25 157 -9 0 18 -109 198
-120 198 -6 0 -13 -18 -16 -40 -4 -22 -10 -40 -14 -40 -7 0 -76 37 -394 212
-184 101 -188 103 -199 91z"/>
<path d="M9797 5283 c-19 -22 -8 -47 19 -41 12 2 19 12 19 27 0 31 -17 37 -38
14z"/>
<path d="M9673 5210 c-33 -20 -37 -50 -6 -50 28 0 74 31 71 48 -5 24 -28 25
-65 2z"/>
<path d="M9537 5128 c-20 -16 -26 -28 -22 -41 9 -22 13 -21 53 3 21 13 32 27
30 38 -5 25 -29 25 -61 0z"/>
<path d="M9408 5049 c-39 -20 -49 -45 -24 -55 15 -6 71 19 82 37 3 6 0 17 -7
24 -12 11 -20 10 -51 -6z"/>
<path d="M6492 5013 c15 -4 16 -8 7 -26 -24 -46 -90 -127 -100 -122 -5 4 -6
12 -3 18 4 8 2 7 -7 -1 -12 -11 -12 -14 1 -22 23 -15 31 -9 88 65 41 53 50 70
41 81 -6 8 -19 13 -28 13 -13 -1 -13 -2 1 -6z"/>
<path d="M8459 5008 c-1 -2 -2 -17 -3 -35 -2 -30 3 -35 69 -72 141 -79 445
-250 653 -366 207 -115 247 -145 240 -182 -3 -18 -61 -64 -123 -99 l-38 -21
83 -48 c46 -26 94 -47 107 -47 14 0 20 -5 16 -12 -3 -6 2 -4 13 5 10 9 34 17
53 17 54 1 112 13 106 22 -3 5 7 10 22 12 16 2 27 8 26 15 -2 8 4 10 14 6 10
-4 14 -2 10 4 -4 6 4 10 21 9 19 -1 27 4 26 15 -1 11 7 15 28 14 16 -1 31 2
34 7 3 4 10 6 15 3 5 -4 9 -1 9 5 0 7 7 10 14 7 10 -4 13 -1 9 9 -3 8 1 14 11
14 9 0 16 5 16 10 0 6 8 14 18 17 9 4 23 14 30 22 8 9 10 10 7 3 -6 -11 -3
-12 14 -2 12 6 19 15 16 21 -4 5 3 9 14 9 11 0 22 9 26 20 4 11 10 18 15 15 5
-3 12 -1 15 5 4 6 16 8 28 5 12 -2 15 -2 7 2 -10 5 -3 11 25 19 22 6 39 17 37
24 -1 6 2 9 7 6 5 -4 12 -2 16 4 3 5 15 10 26 10 10 0 19 5 19 10 0 6 8 10 18
8 11 -2 16 3 14 13 -1 9 9 21 24 27 15 7 22 17 18 24 -4 7 -3 8 4 4 7 -4 20
-2 29 3 10 6 15 11 12 11 -4 0 8 15 27 34 31 31 34 39 34 94 l0 61 38 -16 c36
-15 37 -15 20 3 -14 16 -14 21 -2 32 21 19 6 73 -43 155 -3 5 -17 -5 -32 -22
-24 -29 -678 -428 -748 -458 -18 -7 -56 -13 -85 -13 -60 0 -56 -2 -353 165
-165 92 -375 208 -673 371 -41 23 -51 27 -53 22z"/>
<path d="M6413 4987 c-28 -10 -43 -25 -28 -28 17 -2 65 15 76 27 14 18 -1 18
-48 1z"/>
<path d="M9094 4933 c-20 -37 -43 -78 -50 -90 -13 -21 -19 -63 -9 -63 8 0 290
60 303 65 10 4 10 10 2 25 -9 16 -21 20 -68 20 -67 1 -87 13 -105 66 -8 21
-19 40 -25 42 -5 1 -27 -27 -48 -65z"/>
<path d="M9272 4970 c-26 -11 -39 -37 -24 -52 14 -14 74 19 70 39 -4 21 -17
24 -46 13z"/>
<path d="M6263 4932 c7 -9 23 -11 49 -7 27 5 46 2 63 -9 30 -20 35 -20 35 -1
0 24 -35 35 -98 33 -48 -2 -58 -6 -49 -16z"/>
<path d="M8628 4667 c-70 -12 -129 -25 -132 -28 -3 -3 50 -34 119 -69 69 -35
126 -61 128 -59 15 19 47 119 47 145 0 40 9 40 -162 11z"/>
<path d="M8330 4619 c-94 -18 -88 -12 -144 -132 -29 -62 -65 -136 -80 -166
-14 -30 -26 -63 -26 -73 0 -22 -32 -26 313 37 136 25 251 45 257 45 10 0 50
120 50 150 0 24 -46 60 -76 60 -13 0 -24 4 -24 9 0 5 -20 21 -45 35 -25 13
-42 20 -38 14 3 -7 -9 -2 -29 10 -38 23 -79 26 -158 11z"/>
<path d="M8805 3881 c-63 -36 -249 -144 -254 -148 -3 -2 1 -9 7 -15 9 -9 45 9
147 71 139 85 181 100 247 87 33 -6 310 -153 838 -443 40 -22 42 -23 20 -4
-14 12 -54 37 -90 56 -92 48 -152 88 -120 79 29 -7 26 -2 -9 16 -15 8 -21 8
-17 1 12 -18 -3 -13 -80 30 -41 22 -72 45 -69 49 3 5 -13 19 -36 30 -22 12
-38 17 -34 11 3 -6 3 -11 0 -11 -8 0 -135 68 -215 115 -206 120 -243 129 -335
76z m595 -206 c14 -8 21 -14 15 -14 -5 0 -21 6 -35 14 -14 8 -20 14 -15 14 6
0 21 -6 35 -14z"/>
<path d="M8478 3687 c-72 -49 -61 -67 15 -23 l42 24 120 -65 c66 -36 285 -154
486 -264 201 -109 369 -199 373 -199 4 0 4 5 0 12 -5 8 -1 9 12 5 18 -7 18 -6
-1 9 -32 25 -65 39 -35 15 14 -11 21 -21 17 -21 -11 0 -147 79 -147 86 0 2 9
0 19 -6 11 -5 23 -10 28 -10 4 1 -3 7 -16 14 -13 7 -32 11 -41 9 -10 -3 -21 0
-24 6 -5 7 0 9 11 5 14 -5 15 -4 4 4 -8 6 -21 8 -29 4 -10 -3 -13 -1 -8 6 3 6
1 14 -5 18 -8 4 -9 3 -5 -4 10 -17 1 -15 -55 13 -27 14 -47 30 -44 35 3 5 -5
14 -17 20 -22 11 -22 10 -4 -4 23 -18 14 -21 -15 -5 -11 5 -17 14 -14 19 3 6
0 7 -7 5 -8 -3 -22 2 -33 10 -19 16 -19 16 3 5 34 -16 26 -3 -9 16 -17 8 -28
11 -25 5 10 -16 -7 -13 -30 4 -19 15 -19 15 1 9 16 -5 17 -4 5 4 -8 6 -18 9
-22 6 -7 -5 -79 29 -173 81 -27 15 -99 54 -158 86 -59 32 -121 67 -136 79 -16
11 -31 20 -33 20 -1 0 -24 -15 -50 -33z"/>
<path d="M8357 3615 c-37 -26 -45 -47 -27 -75 8 -12 10 -11 10 7 0 14 12 29
35 43 l34 21 123 -67 c68 -37 202 -110 298 -162 96 -52 259 -142 363 -198 103
-57 193 -104 200 -104 6 1 0 8 -15 16 -34 18 -36 28 -5 18 32 -10 21 -2 -61
44 -40 23 -79 39 -87 35 -9 -3 -21 -1 -28 5 -6 5 -48 29 -92 52 -109 58 -126
69 -120 79 3 5 -2 12 -11 15 -8 3 -12 2 -9 -4 3 -6 -1 -7 -9 -4 -9 3 -14 9
-11 13 2 4 -10 15 -28 25 l-32 18 25 -22 c28 -24 -102 38 -191 91 -30 17 -103
58 -162 91 -60 32 -115 65 -124 73 -20 21 -33 19 -76 -10z m907 -440 c11 -8
15 -15 10 -15 -6 0 -19 7 -30 15 -10 8 -14 14 -9 14 6 0 19 -6 29 -14z m86
-49 c0 -9 -41 8 -52 22 -11 13 -8 12 20 -2 17 -9 32 -18 32 -20z"/>
<path d="M9241 3630 c-8 -4 -10 -13 -6 -19 5 -9 10 -9 20 -1 10 8 21 7 44 -5
17 -8 31 -13 31 -10 0 12 -77 43 -89 35z"/>
<path d="M9500 3626 c0 -3 9 -10 20 -16 11 -6 20 -8 20 -6 0 3 -9 10 -20 16
-11 6 -20 8 -20 6z"/>
<path d="M9236 3550 c-32 -21 -53 -41 -47 -44 6 -4 34 9 62 28 38 25 57 33 69
26 17 -9 49 4 37 16 -19 20 -67 9 -121 -26z"/>
<path d="M9088 3518 c6 -7 31 -24 55 -37 43 -23 77 -24 77 0 0 6 -7 8 -15 5
-9 -3 -39 6 -67 19 -59 28 -65 30 -50 13z"/>
<path d="M8341 3487 c14 -13 112 -70 218 -126 105 -57 191 -105 191 -108 0 -3
-7 -3 -15 0 -19 8 -31 -11 -16 -26 8 -8 17 -7 35 2 22 12 36 7 167 -65 291
-157 305 -164 362 -164 66 0 101 17 353 172 253 154 243 147 250 184 5 26 1
37 -23 61 -15 16 -20 19 -10 8 42 -51 25 -69 -163 -180 -149 -88 -241 -146
-263 -166 -23 -21 -110 -49 -151 -49 -19 0 -66 18 -111 41 -42 23 -74 36 -71
30 4 -6 4 -11 0 -11 -12 0 -159 82 -174 97 -13 14 -13 14 8 4 12 -7 22 -9 22
-7 0 3 -18 15 -41 27 -23 11 -38 15 -34 9 4 -6 -11 -2 -34 9 -23 12 -41 24
-41 26 0 3 14 -1 30 -10 17 -9 30 -13 30 -10 0 2 -18 14 -41 26 -23 11 -38 15
-34 8 5 -7 3 -10 -6 -7 -8 3 -13 10 -12 16 2 6 -3 9 -10 6 -7 -2 -22 4 -34 15
-11 11 -23 17 -26 14 -6 -5 -107 47 -206 106 -29 18 -81 46 -115 62 -56 28
-59 28 -35 6z m800 -413 c17 -8 29 -18 26 -20 -3 -3 -20 4 -38 15 -40 25 -31
28 12 5z"/>
<path d="M8940 3505 c0 -2 18 -14 40 -25 22 -11 40 -18 40 -15 0 2 -18 14 -40
25 -22 11 -40 18 -40 15z"/>
<path d="M8646 3186 c4 -9 -2 -13 -21 -11 -21 3 -24 1 -15 -10 15 -18 50 -7
50 16 0 11 -4 19 -10 19 -5 0 -7 -6 -4 -14z"/>
<path d="M8500 3109 c0 -28 43 -23 48 6 2 15 1 17 -6 6 -7 -9 -12 -10 -16 -2
-12 18 -26 13 -26 -10z"/>
<path d="M8433 3064 c9 -16 -18 -25 -32 -11 -8 8 -11 8 -11 0 0 -23 26 -33 46
-19 16 13 17 17 5 28 -8 7 -11 8 -8 2z"/>
<path d="M8284 2989 c-3 -6 -2 -15 4 -21 14 -14 52 0 51 20 0 11 -3 12 -6 5
-2 -7 -14 -13 -26 -12 -21 0 -21 1 -2 9 16 7 17 9 3 9 -9 1 -20 -4 -24 -10z"/>
<path d="M8183 2924 c-3 -8 -1 -20 4 -25 15 -15 43 1 42 25 -1 16 -2 17 -6 4
-2 -10 -10 -15 -19 -11 -7 3 -11 9 -8 14 3 5 3 9 -1 9 -3 0 -8 -7 -12 -16z"/>
<path d="M8005 2920 c-4 -6 -11 -7 -17 -4 -7 4 -8 2 -4 -4 4 -7 2 -12 -4 -12
-8 0 -8 -6 0 -20 12 -22 35 -17 26 6 -3 8 0 14 8 14 7 0 13 7 13 15 0 17 -13
20 -22 5z"/>
<path d="M8075 2870 c-4 -7 -3 -16 3 -22 14 -14 47 -6 47 12 0 18 -40 26 -50
10z m40 -10 c-3 -5 -10 -10 -16 -10 -5 0 -9 5 -9 10 0 6 7 10 16 10 8 0 12 -4
9 -10z"/>
<path d="M5565 2755 c-49 -8 -146 -21 -215 -30 -69 -8 -137 -18 -151 -21 -24
-4 -29 -17 -73 -165 -26 -88 -45 -167 -42 -175 4 -10 16 -13 43 -9 21 3 134
19 252 35 118 16 219 34 224 39 14 14 87 272 87 308 0 38 6 37 -125 18z m46
-117 c-40 -139 -45 -150 -65 -157 -12 -5 -97 -18 -191 -30 -93 -13 -178 -25
-188 -28 -15 -4 -18 -1 -14 14 45 159 59 194 80 204 22 9 316 56 369 58 l27 1
-18 -62z"/>
<path d="M4457 2516 c-12 -26 -13 -37 -4 -44 10 -8 291 -166 796 -448 145 -81
171 -102 171 -142 0 -37 -20 -55 -160 -140 -63 -38 -221 -133 -350 -212 -129
-79 -255 -149 -280 -157 -57 -18 -137 -10 -193 19 -23 11 -105 57 -182 101
-77 44 -198 111 -270 150 -71 38 -166 91 -210 117 -119 70 -237 131 -229 119
4 -7 1 -10 -7 -7 -8 3 -13 11 -12 17 2 6 -4 11 -13 11 -9 0 -12 -5 -8 -12 5
-8 2 -9 -9 -5 -12 5 -17 1 -17 -12 0 -11 -6 -21 -12 -23 -15 -5 34 -34 402
-238 501 -277 561 -312 576 -342 8 -15 14 -36 14 -47 0 -30 37 -45 107 -44 86
1 89 2 573 299 96 59 198 121 225 138 28 17 59 36 70 42 21 12 34 64 16 64 -6
0 -11 16 -11 35 l0 34 43 -15 c56 -20 124 -11 201 27 33 17 66 35 73 41 7 6
22 8 34 5 15 -4 19 -2 15 9 -3 8 -2 13 3 9 5 -3 15 1 23 8 14 15 20 17 43 17
8 0 15 4 15 10 0 5 -8 7 -17 3 -22 -8 -17 -2 19 20 23 14 26 15 22 2 -5 -11
-2 -13 10 -9 9 3 14 10 11 14 -3 4 5 10 16 13 12 3 18 10 15 15 -3 6 1 12 9
16 8 3 15 0 15 -6 0 -6 10 1 21 16 12 16 27 25 36 22 8 -3 11 -2 8 3 -3 5 12
20 34 32 37 21 59 23 53 7 -1 -5 3 -8 9 -8 6 0 9 9 6 20 -3 10 -2 18 2 17 3
-1 16 8 29 21 12 12 36 25 52 29 16 3 27 9 24 14 -3 5 2 6 10 3 9 -4 18 0 22
9 6 16 122 94 131 89 3 -2 17 13 31 33 23 32 30 36 57 31 18 -4 -13 18 -78 55
l-108 62 -347 -209 -346 -209 -67 -3 c-37 -2 -83 1 -103 8 -36 12 -57 23 -311
165 -77 43 -214 120 -305 170 -91 50 -210 117 -266 148 -55 31 -103 57 -106
57 -2 0 -12 -15 -21 -34z"/>
<path d="M4700 2179 c0 -6 -9 -38 -21 -70 -17 -45 -25 -57 -39 -54 -14 3 -17
-1 -13 -12 4 -10 2 -14 -4 -10 -11 7 -38 -42 -28 -51 3 -3 5 -1 5 5 0 5 6 10
14 10 13 0 13 -5 0 -34 -8 -18 -21 -49 -29 -68 -8 -19 -20 -35 -25 -35 -5 0
-7 -6 -4 -14 3 -7 -1 -20 -9 -27 -7 -8 -14 -18 -14 -22 -2 -18 -26 -67 -34
-67 -8 0 -281 151 -414 230 -47 27 -88 50 -92 50 -4 0 -15 7 -25 17 -17 15
-18 14 -18 -29 l0 -45 138 -76 c75 -42 202 -112 281 -156 99 -55 149 -77 159
-72 9 5 30 44 49 87 18 44 40 96 49 116 9 22 21 35 27 31 6 -4 8 0 4 10 -3 10
-3 17 1 17 12 0 54 91 60 130 11 66 8 143 -5 147 -7 3 -13 -1 -13 -8z"/>
<path d="M4508 2143 c7 -3 16 -2 19 1 4 3 -2 6 -13 5 -11 0 -14 -3 -6 -6z"/>
<path d="M4321 2094 c-151 -30 -277 -56 -280 -59 -12 -12 26 -26 59 -21 95 12
526 99 537 108 21 17 15 28 -14 27 -16 -1 -151 -26 -302 -55z"/>
<path d="M4458 2133 c7 -3 16 -2 19 1 4 3 -2 6 -13 5 -11 0 -14 -3 -6 -6z"/>
<path d="M4120 1976 c0 -3 14 -12 30 -21 17 -9 30 -13 30 -11 0 3 -13 12 -30
21 -16 9 -30 13 -30 11z"/>
<path d="M4526 1845 c-9 -26 -7 -32 5 -12 6 10 9 21 6 23 -2 3 -7 -2 -11 -11z"/>
<path d="M4370 1836 c0 -3 14 -12 30 -21 17 -9 30 -13 30 -11 0 3 -13 12 -30
21 -16 9 -30 13 -30 11z"/>
<path d="M3750 1551 c0 -11 -4 -22 -9 -25 -5 -3 -11 -17 -15 -30 -3 -13 -28
-70 -54 -127 -27 -57 -67 -143 -88 -191 -21 -48 -42 -88 -46 -88 -4 0 -58 30
-120 66 -62 36 -138 79 -170 95 -31 15 -73 40 -95 55 -21 14 -73 44 -115 65
l-78 39 0 -42 0 -43 178 -99 c97 -55 228 -128 290 -163 63 -34 120 -63 127
-63 17 0 27 14 60 90 15 36 50 112 77 170 86 182 89 193 86 250 -2 32 -8 55
-15 58 -8 2 -13 -5 -13 -17z"/>
</g>
</svg>
